/* XPM */
static char *M_xpm[]={
"32 32 160 2",
"      c #C1C1C1",
" 0    c #C2C2C2",
" 1    c #C3C3C3",
" 2    c #C5C5C5",
" 3    c #A9A9A9",
" 4    c #616161",
" 5    c #626262",
" 6    c #AAAAAA",
" 7    c #C4C4C4",
" 8    c #7A7A7A",
" 9    c #303030",
" a    c #313131",
" b    c #323232",
" c    c #333333",
" d    c #818181",
" e    c #7F7F7F",
" f    c #232323",
" g    c #919191",
" h    c #F6F6F6",
" i    c #272727",
" j    c #383838",
" k    c #888888",
" l    c #8F8F8F",
" m    c #3A3A3A",
" n    c #1F1F1F",
" o    c #828282",
" p    c #EFEFEF",
" q    c #FFFFFF",
" r    c #848484",
" s    c #222222",
" t    c #3E3E3E",
" u    c #8D8D8D",
" v    c #9F9F9F",
" w    c #484848",
" x    c #1E1E1E",
" y    c #797979",
" z    c #E9E9E9",
" A    c #1D1D1D",
" B    c #424242",
" C    c #959595",
" D    c #979797",
" E    c #4D4D4D",
" F    c #6C6C6C",
" G    c #E2E2E2",
" H    c #1B1B1B",
" I    c #4A4A4A",
" J    c #9B9B9B",
" K    c #9C9C9C",
" L    c #434343",
" M    c #191919",
" N    c #D9D9D9",
" O    c #515151",
" P    c #A3A3A3",
" Q    c #A5A5A5",
" R    c #181818",
" S    c #525252",
" T    c #D1D1D1",
" U    c #565656",
" V    c #5C5C5C",
" W    c #A7A7A7",
" X    c #161616",
" Y    c #D5D5D5",
" Z    c #FEFEFE",
" &    c #494949",
"0     c #262625",
"00    c #ACACAC",
"01    c #FCFCFC",
"02    c #262626",
"03    c #B9B9B9",
"04    c #2A2A2A",
"05    c #A1A1A1",
"06    c #FAFAFA",
"07    c #343434",
"08    c #2B2B2B",
"09    c #6D6D6D",
"0a    c #C7C7C7",
"0b    c #5D5D5D",
"0c    c #2E2E2E",
"0d    c #656565",
"0e    c #A6A6A6",
"0f    c #505050",
"0g    c #171717",
"0h    c #373737",
"0i    c #F8F8F8",
"0j    c #7C7C7C",
"0k    c #5B5B5B",
"0l    c #ADADAD",
"0m    c #646464",
"0n    c #252525",
"0o    c #AEAEAE",
"0p    c #D7D7D7",
"0q    c #929292",
"0r    c #393939",
"0s    c #999999",
"0t    c #F7F7F7",
"0u    c #939393",
"0v    c #686869",
"0w    c #000000",
"0x    c #575757",
"0y    c #D8D8D8",
"0z    c #3B3B3B",
"0A    c #F5F5F5",
"0B    c #3C3C3C",
"0C    c #777777",
"0D    c #8A8A8A",
"0E    c #D6D6D6",
"0F    c #989898",
"0G    c #757576",
"0H    c #B8B8B8",
"0I    c #737373",
"0J    c #878787",
"0K    c #9A9A9A",
"0L    c #444444",
"0M    c #464646",
"0N    c #9E9E9E",
"0O    c #2F2F2F",
"0P    c #2C2C2C",
"0Q    c #757575",
"0R    c #A4A4A4",
"0S    c #212121",
"0T    c #868686",
"0U    c #D4D4D4",
"0V    c #DADADA",
"0W    c #292929",
"0X    c #555555",
"0Y    c #838383",
"0Z    c #D3D3D3",
"0&    c #898989",
"1     c #353535",
"10    c #808080",
"11    c #8B8B8B",
"12    c #191818",
"13    c #242323",
"14    c #C6C6C6",
"15    c #8C8C8C",
"16    c #7E7E7E",
"17    c #D0D0D0",
"18    c #242424",
"19    c #B2B2B2",
"1a    c #282828",
"1b    c #8E8E8E",
"1c    c #666666",
"1d    c #B1B1B1",
"1e    c #686868",
"1f    c #676767",
"1g    c #696969",
"1h    c #6B6B6B",
"1i    c #B0B0B0",
"1j    c #2D2D2D",
"1k    c #6F6F6F",
"1l    c #AFAFAF",
"1m    c #707070",
"1n    c #747474",
"1o    c #BFBFBF",
"1p    c #727272",
"1q    c #767676",
"1r    c #7D7D7D",
"1s    c #C0C0C0",
"1t    c #ADABAB",
"1u    c #AFADAD",
"                                                                ",
"                           0 0 1 1 0 0                          ",
"                         1 2 3 4 5 6 2 1                        ",
"                     1 7 0 8 9 a b c d 0 7 1                    ",
"                 1 7 0 e a f g h h g i j k 0 7 1                ",
"             0 7 1 l m n o p q q q q p r s t u 1 7 0            ",
"         1 7 0 v w x y z q q q q q q q q z y A B C 0 7 1        ",
"     1 1 0 D E A F G q q q q q q q q q q q q G F H I J 0 1 1    ",
"   7 0 K L M 4 N q q q q q q q q q q q q q q q q N 4 H O P 0 7  ",
"   Q O R S T q q q q q q q q q q q q q q q q q q q q T U A V W  ",
"   X w Y q q q Z q q q q q q q q q q q q q q q q q q q q Y & M  ",
"  0  j0001 q q q q q q q q q q q q q q q q q q q q q q0100 j02  ",
"  03 F04 b0506 q q q q q q q q q q q q q q q q q q060507080903  ",
"   70a030b s0c v06 q q q q q q q Z Z q q q q q06 v 9020d030a 7  ",
"   00e0f0g E 80h07 K0i q q q q q q q q q q0i K07 j0j E M0k0l 0  ",
"  0m0n w0o N N0p0q0r b0s0t q q q q q q0t0s c m0u0p N N0o w020v  ",
"  0w0x N N N N N N0y C0z a C0A q q0A C b0B D0y N N N N N N0x0w  ",
"  0C a a0D0E N N N N N N0F0B 90q0q a t J N N N N N N0E0D a a0G  ",
"   00H0I080c0J Y N N N N N N0K0L0M0N N N N N N N Y0J0O0P0Q0H 0  ",
"   70a0R0L0S i0O0T0U N N N N N N0V N N N N N0U0T0O0W i E 30a 7  ",
"  0l0X0g L P 20T c0c0Y0Z N N N N N N N N0Z0Y0c07 k 2 P L R0k0o  ",
"  0g0r0e0a0a0a0a 20&1 0P10 T N N N N T100P1 11 20a0a0a0a0e0r12  ",
"  130O0T 20a0a0a0a0a14150h0416171716040h l140a0a0a0a0a 20T0O18  ",
"  190d1a0816 10a0a0a0a0a0a1b0r0404 m0q0a0a0a0a0a0a 116081a1c19  ",
"   7 11d1c0W040j 10a0a0a0a0a1d1c1e1d0a0a0a0a0a 10j04041f1d 1 7  ",
"     0 7 11d1g080W 8 00a0a0a0a0a0a0a0a0a0a 0 80W0P1h1d 1 7 0    ",
"         0 7 71i1h1j1a0C  0a0a0a0a0a0a  0C1a0c1k1i 7 7 0        ",
"             0 7 11l1m0c i1n1o0a0a1o1n i 90Q1l 1 7 0            ",
"                 0 7 11d0I0c021p1p02 a y1d 1 7 0                ",
"                     0 2 11d1q1 0h1r1d 1 2 0                    ",
"                         0 71s1t1u1s 7 0                        ",
"                                                                "};
