/* XPM */
static char *R_xpm[]={
"32 32 174 2",
"      c #1D28F4",
" 0    c #0F1AF4",
" 1    c #0F1AF5",
" 2    c #0F19F4",
" 3    c #1D27F4",
" 4    c #0B26E5",
" 5    c #001BE4",
" 6    c #001BE3",
" 7    c #001CE4",
" 8    c #001CE3",
" 9    c #0B25E4",
" a    c #0F38D7",
" b    c #002BD4",
" c    c #002BD3",
" d    c #002CD4",
" e    c #002CD3",
" f    c #0F37D6",
" g    c #0F47C8",
" h    c #003BC4",
" i    c #003AC4",
" j    c #0F47C7",
" k    c #0F55B9",
" l    c #004BB4",
" m    c #004BB5",
" n    c #004AB5",
" o    c #004AB4",
" p    c #0F56B9",
" q    c #0F64A9",
" r    c #005AA5",
" s    c #005AA4",
" t    c #005BA5",
" u    c #005BA4",
" v    c #0F65AA",
" w    c #0F739B",
" x    c #006A95",
" y    c #006B95",
" z    c #006A94",
" A    c #0F828C",
" B    c #007A86",
" C    c #007A85",
" D    c #007985",
" E    c #007986",
" F    c #0F828D",
" G    c #0F907D",
" H    c #008976",
" I    c #008A75",
" J    c #008A76",
" K    c #008975",
" L    c #0F917E",
" M    c #0F9F6F",
" N    c #009866",
" O    c #009965",
" P    c #009966",
" Q    c #009A65",
" R    c #009A66",
" S    c #0F9F6E",
" T    c #0FAD60",
" U    c #00A956",
" V    c #00A957",
" W    c #00A856",
" X    c #00A857",
" Y    c #0FAE61",
" Z    c #0FBC51",
" &    c #00B946",
"0     c #00B947",
"00    c #00B847",
"01    c #00B846",
"02    c #0FBD52",
"03    c #0FCB43",
"04    c #00C837",
"05    c #00C937",
"06    c #00C836",
"07    c #0FDA34",
"08    c #00D827",
"09    c #00D828",
"0a    c #00D727",
"0b    c #00D927",
"0c    c #0FE825",
"0d    c #00E818",
"0e    c #00E717",
"0f    c #00E817",
"0g    c #00E718",
"0h    c #0FE926",
"0i    c #0FF817",
"0j    c #00F807",
"0k    c #00F808",
"0l    c #00F707",
"0m    c #00F708",
"0n    c #16F80F",
"0o    c #08F700",
"0p    c #08F800",
"0q    c #07F800",
"0r    c #07F700",
"0s    c #25E80F",
"0t    c #17E700",
"0u    c #18E800",
"0v    c #17E800",
"0w    c #18E700",
"0x    c #25E90F",
"0y    c #34DA0F",
"0z    c #27D700",
"0A    c #27D800",
"0B    c #28D800",
"0C    c #43CB0F",
"0D    c #37C800",
"0E    c #37C900",
"0F    c #36C800",
"0G    c #36C900",
"0H    c #52BD0F",
"0I    c #47B800",
"0J    c #46B900",
"0K    c #47B900",
"0L    c #46B800",
"0M    c #51BD0F",
"0N    c #60AE0F",
"0O    c #57A800",
"0P    c #56A900",
"0Q    c #56A800",
"0R    c #57A900",
"0S    c #6FA00F",
"0T    c #659900",
"0U    c #669900",
"0V    c #669A00",
"0W    c #659A00",
"0X    c #6F9F0F",
"0Y    c #7D910F",
"0Z    c #758A00",
"0&    c #768900",
"1     c #768A00",
"10    c #758900",
"11    c #8C810F",
"12    c #857A00",
"13    c #867A00",
"14    c #857900",
"15    c #867900",
"16    c #8C820F",
"17    c #9B730F",
"18    c #956A00",
"19    c #956B00",
"1a    c #AA650F",
"1b    c #A55A00",
"1c    c #A45B00",
"1d    c #A55B00",
"1e    c #A45A00",
"1f    c #A9640F",
"1g    c #B9560F",
"1h    c #B54B00",
"1i    c #B44B00",
"1j    c #B44A00",
"1k    c #B54A00",
"1l    c #B8560F",
"1m    c #C7470F",
"1n    c #C43B00",
"1o    c #C53B00",
"1p    c #C33B00",
"1q    c #C43A00",
"1r    c #C33A00",
"1s    c #C43C00",
"1t    c #D7370F",
"1u    c #D32B00",
"1v    c #D32C00",
"1w    c #D42C00",
"1x    c #D42B00",
"1y    c #D7380F",
"1z    c #E5260B",
"1A    c #E31B00",
"1B    c #E31C00",
"1C    c #E41B00",
"1D    c #E41C00",
"1E    c #F4281D",
"1F    c #F51A0F",
"1G    c #F41A0F",
"1H    c #F5190F",
"1I    c #F4190F",
"   0 0 1 0 0 0 0 2 2 2 0 0 0 2 0 1 1 0 0 0 0 0 0 0 0 0 0 0 0 2 3",
" 4 5 6 7 5 6 5 5 6 6 6 5 5 5 6 6 5 5 5 5 6 6 8 7 5 6 8 7 7 6 6 9",
" a b c c b c b b c c d c b b b c b d b b c c e d b c d b d c b f",
" g h h i h h h h h h h h h h h h h h h h h h h h h h h h h h h j",
" k l m m n l l l m l m n m o l l o n l m o o l l l o o l m l l p",
" q r r r r s r t u s r r r s s r r r u t r r s u r s s t r u t v",
" w x x x x x x x x x x x x y x x y y x x x x x x x x x x z x x w",
" A B C C C C C C C C D B B B C B C C C C C B D E D C B C B D C F",
" G H I I I J H J H I H J J H H H H K I I H J H H H H J K J H H L",
" M N O P Q P P P P R R P R P P O P P R P P P P P P P P P R P P S",
" T U V U W U X W U U U W V V U W U W U V U U U U U W U V U U X Y",
" Z &0 0 0000000  & &010 01 &0  & &0001000 0 01000 010 0 0 000002",
"0304050404040405060404040606040504040404040504040404040404040403",
"0708090a080808080a08080808080a080809080b0a0808080809080808080907",
"0c0d0d0e0f0f0d0f0g0e0f0f0f0f0g0e0d0d0e0f0g0d0d0f0d0d0d0d0f0d0d0h",
"0i0j0k0k0k0k0k0l0m0j0j0k0k0k0k0j0k0k0j0k0k0k0k0m0m0k0k0k0j0k0k0i",
"0n0o0p0p0q0o0q0p0q0p0p0q0q0o0p0p0q0p0q0p0q0r0p0p0p0q0r0p0q0p0p0n",
"0s0t0u0v0v0v0t0u0v0t0v0u0v0u0u0v0v0u0v0u0u0u0u0w0v0v0u0v0t0u0v0x",
"0y0z0A0A0A0A0z0A0A0A0A0B0A0A0A0A0A0A0A0A0B0B0A0z0A0A0B0A0z0A0A0y",
"0C0D0D0E0E0E0E0D0D0D0D0F0D0G0D0D0E0E0F0D0D0D0D0D0D0D0D0D0E0E0D0C",
"0H0I0I0J0K0K0J0I0K0I0I0L0I0J0I0I0K0K0J0I0I0I0I0I0I0I0J0I0K0K0L0M",
"0N0O0P0P0P0Q0P0P0P0P0P0P0P0Q0P0Q0O0P0P0R0P0P0Q0P0P0Q0P0P0O0Q0R0N",
"0S0T0U0U0U0U0V0U0T0T0U0U0U0V0U0U0U0U0U0U0U0W0U0U0U0V0V0U0U0U0U0X",
"0Y0Z0&0Z1 0Z1 10101 0&10100Z1 0&1 100Z0&100&0Z100&1 0Z0Z0&0&0Z0Y",
"1112121212121212121314121212121212141412121512121212121212131216",
"1718181818181819181818181818181818181819181818181818181818181817",
"1a1b1c1d1d1e1e1b1b1d1d1b1b1d1d1e1e1e1b1b1c1b1d1c1e1b1b1d1d1e1b1f",
"1g1h1h1i1h1h1j1j1j1h1k1h1i1k1i1i1i1i1j1k1i1h1h1i1i1k1j1j1i1j1k1l",
"1m1n1o1n1p1n1q1n1n1p1r1n1n1q1p1n1n1p1q1n1n1n1n1n1s1n1n1n1n1n1n1m",
"1t1u1v1w1u1x1w1x1u1u1w1x1w1w1v1x1x1u1x1w1v1x1x1u1v1x1u1w1x1w1w1y",
"1z1A1B1B1A1C1D1A1A1C1B1C1D1B1D1C1C1C1C1C1B1A1C1A1B1C1A1A1C1D1D1z",
"1E1F1G1G1G1F1G1G1G1G1G1G1G1G1F1H1G1G1G1I1G1G1G1G1G1I1F1G1G1G1G1E"};
