/* XPM */
static char *magick[] = {
/* columns rows colors chars-per-pixel */
"32 32 37 1",
"  c #211000",
". c #271600",
"X c #2c3400",
"o c #2d3500",
"O c #403100",
"+ c #403600",
"@ c #493800",
"# c #493801",
"$ c #493900",
"% c #523831",
"& c #583838",
"* c #603407",
"= c #643a09",
"- c #8a192c",
"; c #8a2033",
": c #a50000",
"> c #a70002",
", c #805e2d",
"< c #815f34",
"1 c #a56a1a",
"2 c #a56c1c",
"3 c #8a596d",
"4 c #8a5c70",
"5 c #985c76",
"6 c #9b5e79",
"7 c #c30000",
"8 c #cf0000",
"9 c #cf3e47",
"0 c #c36400",
"q c #cf424b",
"w c #a76bba",
"e c #a970ba",
"r c #c5cc15",
"t c #d2cc14",
"y c #8abad6",
"u c #c5e095",
"i c #d2e0ba",
/* pixels */
"uu2:$$y48886q=&eit.o<007+uryyy;8",
"uu1:$$y388859*%wit o,007Ouryyy-8",
"uu1:$$y388859*%wit o,007Ouryyy-8",
"uu1:$$y388859*%wit o,007Ouryyy-8",
"uu1:$$y388859*%wit o,007Ouryyy-8",
"uu1:$$y388859*%wit o,007Ouryyy-8",
"uu1:$$y388859*%wit o,007Ouryyy-8",
"uu1:$$y388859*%wit o,007Ouryyy-8",
"uu1:$$y388859*%wit o,007Ouryyy-8",
"uu1:$$y388859*%wit o,007Ouryyy-8",
"uu1:$$y388859*%wit o,007Ouryyy-8",
"uu1:$$y388859*%wit o,007Ouryyy-8",
"uu1:$$y388859*%wit o,007Ouryyy-8",
"uu1:$$y388859*%wit o,007Ouryyy-8",
"uu1:$$y388859*%wit o,007Ouryyy-8",
"uu1:$$y388859*%wit o,007Ouryyy-8",
"uu1:$$y388859*%wit o,007Ouryyy-8",
"uu1:$$y388859*%wit o,007Ouryyy-8",
"uu1:$$y388859*%wit o,007Ouryyy-8",
"uu1:$$y388859*%wit o,007Ouryyy-8",
"uu1:$$y388859*%wit o,007Ouryyy-8",
"uu1:$$y388859*%wit o,007Ouryyy-8",
"uu1:$$y388859*%wit o,007Ouryyy-8",
"uu1:$$y388859*%wit o,007Ouryyy-8",
"uu1:$$y388859*%wit o,007Ouryyy-8",
"uu1:$$y388859*%wit o,007Ouryyy-8",
"uu1:$$y388859*%wit o,007Ouryyy-8",
"uu1:$$y388859*%wit o,007Ouryyy-8",
"uu1:$$y388859*%wit o,007Ouryyy-8",
"uu1:$$y388859*%wit o,007Ouryyy-8",
"uu1:$$y388859*%wit o,007Ouryyy-8",
"uu1:$$y388859*%wit o,007Ouryyy-8"
};
